<svg xmlns="http://www.w3.org/2000/svg" version="1.1" xmlns:xlink="http://www.w3.org/1999/xlink" xmlns:svgjs="http://svgjs.dev/svgjs" width="2000" height="393" viewBox="0 0 2000 393"><g transform="matrix(1,0,0,1,-1.2121212121213603,-0.43424757061123387)"><svg viewBox="0 0 396 78" data-background-color="#ffffff" preserveAspectRatio="xMidYMid meet" height="393" width="2000" xmlns="http://www.w3.org/2000/svg" xmlns:xlink="http://www.w3.org/1999/xlink"><g id="tight-bounds" transform="matrix(1,0,0,1,0.24000000000003752,0.08618654073200105)"><svg viewBox="0 0 395.5199999999999 77.827626918536" height="77.827626918536" width="395.5199999999999"><g><svg viewBox="0 0 395.5199999999999 77.827626918536" height="77.827626918536" width="395.5199999999999"><g><svg viewBox="0 0 395.5199999999999 77.827626918536" height="77.827626918536" width="395.5199999999999"><g id="textblocktransform"><svg viewBox="0 0 395.5199999999999 77.827626918536" height="77.827626918536" width="395.5199999999999" id="textblock"><g><svg viewBox="0 0 395.5199999999999 77.827626918536" height="77.827626918536" width="395.5199999999999"><g transform="matrix(1,0,0,1,0,0)"><svg width="395.5199999999999" viewBox="2.75 -49.3 381.12 75" height="77.827626918536" data-palette-color="#cb8c2e"><path d="M19.1 0.7L19.1 0.7Q14 0.7 10.33-1.55 6.65-3.8 4.7-7.85 2.75-11.9 2.75-17.35L2.75-17.35Q2.75-23.15 4.88-27.53 7-31.9 10.8-34.35 14.6-36.8 19.5-36.8L19.5-36.8Q23.4-36.8 26.63-35.23 29.85-33.65 31.85-30.85L31.85-30.85Q31.6-29.95 30.58-29 29.55-28.05 28.55-27.75L28.55-27.75Q26.75-30.1 24.45-31.2 22.15-32.3 19.5-32.3L19.5-32.3Q15.95-32.3 13.25-30.45 10.55-28.6 9.05-25.3 7.55-22 7.55-17.6L7.55-17.6Q7.55-13.45 8.93-10.35 10.3-7.25 12.98-5.53 15.65-3.8 19.5-3.8L19.5-3.8Q22.85-3.8 25.3-5.15 27.75-6.5 29.75-8.95L29.75-8.95Q30.7-8.65 31.7-7.85 32.7-7.05 33.1-6.25L33.1-6.25Q30.8-2.85 27.18-1.07 23.55 0.7 19.1 0.7ZM34.9-3.6L34.9-3.6Q35.95-3.6 37.15-4.25 38.35-4.9 39.4-6.25L39.4-6.25Q40.85-8.25 41.42-10.95 42-13.65 42-16.2L42-16.2 42-23.6Q42.45-23.75 43.05-23.85 43.65-23.95 44.3-23.95L44.3-23.95Q45.45-23.95 46.55-23.6L46.55-23.6 46.55-12.05Q46.55-7.7 47.95-5.73 49.35-3.75 52.35-3.75L52.35-3.75Q59.5-3.75 59.5-14.2L59.5-14.2 59.5-23.6Q59.9-23.75 60.5-23.85 61.1-23.95 61.75-23.95L61.75-23.95Q62.95-23.95 64.05-23.6L64.05-23.6 64.05-9.2Q64.05-6.55 64.87-5.08 65.7-3.6 67.65-3.6L67.65-3.6Q68.5-3.6 68.8-2.9 69.1-2.2 69.1-1.4L69.1-1.4Q69.1-0.6 68.67 0.05 68.25 0.7 67.3 0.7L67.3 0.7Q62.5 0.7 60.8-3.5L60.8-3.5Q59.4-1.45 57.2-0.38 55 0.7 52 0.7L52 0.7Q45.65 0.7 43.3-4.7L43.3-4.7Q42.5-3.25 41.5-2.25L41.5-2.25Q40.15-0.9 38.37-0.1 36.6 0.7 34.55 0.7L34.55 0.7Q33.85 0.7 33.47 0.03 33.1-0.65 33.1-1.45L33.1-1.45Q33.1-2.3 33.52-2.95 33.95-3.6 34.9-3.6ZM67.3 0.7L67.3 0.7Q66.65 0.7 66.25 0.1 65.85-0.5 65.85-1.45L65.85-1.45Q65.85-2.45 66.32-3.03 66.8-3.6 67.6-3.6L67.6-3.6Q69.2-3.6 71.05-4.75 72.9-5.9 74.65-7.9L74.65-7.9Q74.25-9.75 74.02-12.25 73.8-14.75 73.7-18.3 73.6-21.85 73.6-26.85L73.6-26.85 73.65-26.85 73.6-26.9Q73.6-31.35 73.7-34.45 73.8-37.55 74.1-39.65 74.4-41.75 74.87-43.23 75.35-44.7 76.1-45.9L76.1-45.9Q77.2-47.7 78.82-48.5 80.45-49.3 82.4-49.3L82.4-49.3Q86.3-49.3 88.4-45.85 90.5-42.4 90.5-36.35L90.5-36.35Q90.5-29.1 87.65-21.45 84.8-13.8 79.5-6.85L79.5-6.85Q80.2-5.2 81.55-4.38 82.9-3.55 84.65-3.55L84.65-3.55Q85.35-3.55 85.77-2.98 86.2-2.4 86.2-1.4L86.2-1.4Q86.2 0.7 84.35 0.7L84.35 0.7Q81.65 0.7 79.55-0.45 77.45-1.6 76.3-3.4L76.3-3.4Q72.15 0.7 67.3 0.7ZM78.05-26.6L78.05-26.6Q78.05-21.35 78.12-17.95 78.2-14.55 78.35-12.35L78.35-12.35Q82.15-18.65 84.1-24.68 86.05-30.7 86.05-36.4L86.05-36.4Q86.05-40.55 85.1-42.78 84.15-45 82.4-45L82.4-45Q80.45-45 79.45-42.7L79.45-42.7Q78.95-41.5 78.62-39.68 78.3-37.85 78.17-34.75 78.05-31.65 78.05-26.6ZM89.69-3.6L89.69-3.6Q90.74-3.6 91.94-4.25 93.14-4.9 94.19-6.25L94.19-6.25Q95.44-7.95 96.02-10.15 96.59-12.35 96.74-14.6L96.74-14.6 96.74-23.6Q97.19-23.75 97.79-23.85 98.39-23.95 99.04-23.95L99.04-23.95Q100.19-23.95 101.29-23.6L101.29-23.6 101.29-9.2Q101.29-6.55 102.12-5.08 102.94-3.6 104.89-3.6L104.89-3.6Q105.74-3.6 106.04-2.9 106.34-2.2 106.34-1.4L106.34-1.4Q106.34-0.6 105.92 0.05 105.49 0.7 104.54 0.7L104.54 0.7Q99.34 0.7 97.79-4.2L97.79-4.2Q97.09-3.05 96.29-2.25L96.29-2.25Q94.94-0.9 93.17-0.1 91.39 0.7 89.34 0.7L89.34 0.7Q88.64 0.7 88.27 0.03 87.89-0.65 87.89-1.45L87.89-1.45Q87.89-2.3 88.32-2.95 88.74-3.6 89.69-3.6ZM99.09-30.8L99.09-30.8Q97.69-30.8 96.69-31.8 95.69-32.8 95.69-34.2L95.69-34.2Q95.69-35.7 96.67-36.65 97.64-37.6 99.09-37.6L99.09-37.6Q100.59-37.6 101.54-36.65 102.49-35.7 102.49-34.2L102.49-34.2Q102.49-32.75 101.52-31.78 100.54-30.8 99.09-30.8ZM104.54 0.7L104.54 0.7Q103.89 0.7 103.49 0.1 103.09-0.5 103.09-1.45L103.09-1.45Q103.09-3.6 104.89-3.6L104.89-3.6Q106.49-3.6 107.77-5.23 109.04-6.85 109.99-10.65L109.99-10.65 111.49-16.5Q113.59-24.3 119.49-24.3L119.49-24.3Q121.74-24.3 123.29-22.98 124.84-21.65 125.44-19.4L125.44-19.4Q126.84-21.75 129.04-23.03 131.24-24.3 133.94-24.3L133.94-24.3Q137.84-24.3 139.97-21.75 142.09-19.2 142.09-14.6L142.09-14.6 142.09-8.75Q142.09-6 142.81-4.8 143.54-3.6 145.14-3.6L145.14-3.6Q145.84-3.6 146.22-3 146.59-2.4 146.59-1.4L146.59-1.4Q146.59-0.6 146.17 0.05 145.74 0.7 144.79 0.7L144.79 0.7Q137.54 0.7 137.54-8.2L137.54-8.2 137.54-14.6Q137.54-20 133.29-20L133.29-20Q131.09-20 129.42-18.25 127.74-16.5 126.82-13.4 125.89-10.3 125.89-6.2L125.89-6.2 125.89 0Q125.39 0.15 124.79 0.25 124.19 0.35 123.64 0.35L123.64 0.35Q122.44 0.35 121.39 0L121.39 0 121.39-15.95Q121.39-17.9 120.89-18.95 120.39-20 119.09-20L119.09-20Q118.04-20 117.29-19.05 116.54-18.1 115.99-16L115.99-16 114.14-8.8Q112.84-3.85 110.54-1.58 108.24 0.7 104.54 0.7ZM145.14-3.6L145.14-3.6Q146.84-3.6 148.46-5.28 150.09-6.95 151.19-9.8L151.19-9.8Q151.14-10.5 151.14-11.2L151.14-11.2Q151.14-15 152.64-17.95 154.14-20.9 156.71-22.6 159.29-24.3 162.59-24.3L162.59-24.3Q164.34-24.3 166.04-23.63 167.74-22.95 168.89-21.8L168.89-21.8 168.89-23.85Q169.34-24 169.94-24.1 170.54-24.2 171.19-24.2L171.19-24.2Q172.39-24.2 173.44-23.85L173.44-23.85 173.44-9.2Q173.44-6.55 174.26-5.08 175.09-3.6 177.04-3.6L177.04-3.6Q177.89-3.6 178.19-2.9 178.49-2.2 178.49-1.4L178.49-1.4Q178.49-0.6 178.06 0.05 177.64 0.7 176.69 0.7L176.69 0.7Q171.79 0.7 170.14-3.7L170.14-3.7Q168.69-1.65 166.51-0.48 164.34 0.7 161.69 0.7L161.69 0.7Q158.79 0.7 156.56-0.58 154.34-1.85 152.94-4.1L152.94-4.1Q149.84 0.7 144.79 0.7L144.79 0.7Q144.14 0.7 143.74 0.1 143.34-0.5 143.34-1.45L143.34-1.45Q143.34-3.6 145.14-3.6ZM155.79-11.2L155.79-11.2Q155.79-7.65 157.41-5.63 159.04-3.6 161.89-3.6L161.89-3.6Q165.04-3.6 166.96-5.75 168.89-7.9 168.89-11.4L168.89-11.4 168.89-17Q167.89-18.35 166.34-19.18 164.79-20 163.14-20L163.14-20Q160.99-20 159.34-18.85 157.69-17.7 156.74-15.73 155.79-13.75 155.79-11.2ZM176.69 0.7L176.69 0.7Q176.03 0.7 175.64 0.1 175.24-0.5 175.24-1.45L175.24-1.45Q175.24-3.6 177.03-3.6L177.03-3.6Q179.24-3.6 180.96-5.43 182.69-7.25 183.71-10.4 184.74-13.55 184.74-17.4L184.74-17.4Q184.74-18.3 184.64-19.05 184.53-19.8 184.39-20.3L184.39-20.3Q183.94-20.75 183.41-21.75 182.89-22.75 182.51-23.88 182.14-25 182.14-25.7L182.14-25.7Q182.74-26.65 184.06-27.18 185.39-27.7 186.99-27.45L186.99-27.45Q187.94-25.7 188.53-23.05L188.53-23.05Q190.03-23.1 192.59-23.7L192.59-23.7Q194.19-24.05 195.16-24.18 196.14-24.3 196.84-24.3L196.84-24.3Q199.54-24.3 201.09-22.28 202.64-20.25 202.64-16.8L202.64-16.8 202.64-8.75Q202.64-6 203.36-4.8 204.09-3.6 205.69-3.6L205.69-3.6Q206.39-3.6 206.76-3 207.14-2.4 207.14-1.4L207.14-1.4Q207.14-0.6 206.71 0.05 206.29 0.7 205.34 0.7L205.34 0.7Q198.09 0.7 198.09-8.2L198.09-8.2 198.09-15.95Q198.09-18.2 197.59-19.1 197.09-20 195.78-20L195.78-20Q195.34-20 194.78-19.9 194.24-19.8 192.84-19.5L192.84-19.5Q190.39-19 189.14-18.9L189.14-18.9Q189.19-18.1 189.19-17.3L189.19-17.3Q189.19-11.9 187.64-7.85 186.09-3.8 183.26-1.55 180.44 0.7 176.69 0.7ZM205.68-3.6L205.68-3.6Q206.73-3.6 207.93-4.25 209.13-4.9 210.18-6.25L210.18-6.25Q211.63-8.25 212.21-10.95 212.78-13.65 212.78-16.2L212.78-16.2 212.78-23.6Q213.23-23.75 213.83-23.85 214.43-23.95 215.08-23.95L215.08-23.95Q216.23-23.95 217.33-23.6L217.33-23.6 217.33-12.05Q217.33-3.75 223.38-3.75L223.38-3.75Q226.93-3.75 228.61-6.63 230.28-9.5 230.28-14.5L230.28-14.5 230.28-23.6Q231.33-23.95 232.53-23.95L232.53-23.95Q233.78-23.95 234.83-23.6L234.83-23.6 234.83 14Q234.83 25.7 226.28 25.7L226.28 25.7Q222.33 25.7 220.11 23.35 217.88 21 217.88 16.9L217.88 16.9Q217.88 7.75 230.38-0.25L230.38-0.25 230.38-2.6Q227.53 0.7 222.78 0.7L222.78 0.7Q216.43 0.7 214.03-4.65L214.03-4.65Q213.23-3.2 212.28-2.25L212.28-2.25Q210.93-0.9 209.16-0.1 207.38 0.7 205.33 0.7L205.33 0.7Q204.63 0.7 204.26 0.03 203.88-0.65 203.88-1.45L203.88-1.45Q203.88-2.3 204.31-2.95 204.73-3.6 205.68-3.6ZM222.38 16.8L222.38 16.8Q222.38 18.95 223.38 20.18 224.38 21.4 226.13 21.4L226.13 21.4Q230.38 21.4 230.38 14L230.38 14 230.38 5.05Q222.38 10.7 222.38 16.8ZM275.48 0.7L275.48 0.7Q270.38 0.7 266.7-1.55 263.03-3.8 261.08-7.85 259.13-11.9 259.13-17.35L259.13-17.35Q259.13-23.15 261.25-27.53 263.38-31.9 267.18-34.35 270.98-36.8 275.88-36.8L275.88-36.8Q279.78-36.8 283-35.23 286.23-33.65 288.23-30.85L288.23-30.85Q287.98-29.95 286.95-29 285.93-28.05 284.93-27.75L284.93-27.75Q283.13-30.1 280.83-31.2 278.53-32.3 275.88-32.3L275.88-32.3Q272.33-32.3 269.63-30.45 266.93-28.6 265.43-25.3 263.93-22 263.93-17.6L263.93-17.6Q263.93-13.45 265.3-10.35 266.68-7.25 269.35-5.53 272.03-3.8 275.88-3.8L275.88-3.8Q279.23-3.8 281.68-5.15 284.13-6.5 286.13-8.95L286.13-8.95Q287.08-8.65 288.08-7.85 289.08-7.05 289.48-6.25L289.48-6.25Q287.18-2.85 283.55-1.07 279.93 0.7 275.48 0.7ZM291.27-3.6L291.27-3.6Q292.93-3.6 294.5-5.18 296.07-6.75 297.18-9.4L297.18-9.4Q296.97-10.6 296.97-11.85L296.97-11.85Q296.97-15.45 298.52-18.25 300.07-21.05 302.75-22.68 305.43-24.3 308.77-24.3L308.77-24.3Q312.13-24.3 314.77-22.68 317.43-21.05 318.95-18.25 320.47-15.45 320.47-11.85L320.47-11.85Q320.47-8.25 318.95-5.4 317.43-2.55 314.8-0.93 312.18 0.7 308.77 0.7L308.77 0.7Q305.72 0.7 303.25-0.63 300.77-1.95 299.18-4.25L299.18-4.25Q296.07 0.7 290.93 0.7L290.93 0.7Q290.27 0.7 289.88 0.1 289.47-0.5 289.47-1.45L289.47-1.45Q289.47-3.6 291.27-3.6ZM308.72-3.6L308.72-3.6Q311.93-3.6 313.85-5.85 315.77-8.1 315.77-11.85L315.77-11.85Q315.77-13.7 315.22-15.25L315.22-15.25Q312.22-15.35 309.8-16.45 307.38-17.55 305.97-19.45L305.97-19.45Q303.97-18.6 302.82-16.57 301.68-14.55 301.68-11.75L301.68-11.75Q301.68-8.1 303.6-5.85 305.52-3.6 308.72-3.6ZM322.47 0.7L322.47 0.7Q321.82 0.7 321.42 0.1 321.02-0.5 321.02-1.45L321.02-1.45Q321.02-3.6 322.82-3.6L322.82-3.6Q324.42-3.6 325.7-5.23 326.97-6.85 327.92-10.65L327.92-10.65 329.42-16.5Q331.52-24.3 337.42-24.3L337.42-24.3Q340.07-24.3 341.95-22.23 343.82-20.15 343.82-16.6L343.82-16.6 343.82-9.05Q343.82-3.6 347.02-3.6L347.02-3.6Q349.07-3.6 350.82-5.25 352.57-6.9 353.65-9.58 354.72-12.25 354.72-15.3L354.72-15.3Q354.72-15.7 354.72-16.1L354.72-16.1Q352.37-17 351.07-18.5L351.07-18.5Q351.22-20.1 351.92-21.43 352.62-22.75 353.65-23.53 354.67-24.3 355.62-24.3L355.62-24.3Q357.27-24.3 358.3-21.88 359.32-19.45 359.32-15.7L359.32-15.7Q359.32-11.05 357.65-7.33 355.97-3.6 353.07-1.45 350.17 0.7 346.52 0.7L346.52 0.7Q343.17 0.7 341.22-1.68 339.27-4.05 339.27-8.1L339.27-8.1 339.27-15.95Q339.27-18.15 338.62-19.07 337.97-20 337.02-20L337.02-20Q335.97-20 335.22-19.05 334.47-18.1 333.92-16L333.92-16 332.07-8.8Q330.77-3.85 328.47-1.58 326.17 0.7 322.47 0.7ZM362.52 0.7L362.52 0.7Q361.87 0.7 361.47 0.1 361.07-0.5 361.07-1.45L361.07-1.45Q361.07-3.6 362.87-3.6L362.87-3.6Q364.32-3.6 365.82-4.08 367.32-4.55 369.32-5.7L369.32-5.7Q367.37-9.1 367.37-13.7L367.37-13.7Q367.37-16.8 368.52-19.18 369.67-21.55 371.72-22.93 373.77-24.3 376.37-24.3L376.37-24.3Q378.57-24.3 380.27-23.28 381.97-22.25 382.92-20.45 383.87-18.65 383.87-16.3L383.87-16.3Q383.87-13.1 382-10.45 380.12-7.8 375.67-4.7L375.67-4.7Q377.27-3.55 379.97-3.55L379.97-3.55Q380.67-3.55 381.07-2.95 381.47-2.35 381.47-1.35L381.47-1.35Q381.47-0.4 381.02 0.15 380.57 0.7 379.72 0.7L379.72 0.7Q377.32 0.7 375.22-0.1 373.12-0.9 371.72-2.3L371.72-2.3Q366.92 0.7 362.52 0.7ZM371.72-14.1L371.72-14.1Q371.72-10.15 373.12-7.8L373.12-7.8Q376.37-10.05 377.94-12.2 379.52-14.35 379.52-16.3L379.52-16.3Q379.52-18.1 378.65-19.13 377.77-20.15 376.22-20.15L376.22-20.15Q374.27-20.15 373-18.4 371.72-16.65 371.72-14.1Z" opacity="1" transform="matrix(1,0,0,1,0,0)" fill="#cb8c2e" class="wordmark-text-0" data-fill-palette-color="primary" id="text-0"></path></svg></g></svg></g></svg></g></svg></g></svg></g><defs></defs></svg><rect width="395.5199999999999" height="77.827626918536" fill="none" stroke="none" visibility="hidden"></rect></g></svg></g></svg>